<?xml version="1.0" standalone="no"?>
<!DOCTYPE svg PUBLIC "-//W3C//DTD SVG 20010904//EN"
 "http://www.w3.org/TR/2001/REC-SVG-20010904/DTD/svg10.dtd">
<svg version="1.0" xmlns="http://www.w3.org/2000/svg"
 width="512.000000pt" height="512.000000pt" viewBox="0 0 512.000000 512.000000"
 preserveAspectRatio="xMidYMid meet">
<metadata>
Created by potrace 1.14, written by Peter Selinger 2001-2017
</metadata>
<g transform="translate(0.000000,512.000000) scale(0.100000,-0.100000)"
fill="#000000" stroke="none">
<path d="M605 4949 c-115 -125 -216 -294 -244 -411 -22 -93 -11 -189 33 -288
6 -14 -5 -16 -66 -17 -97 -2 -98 -4 -98 -168 0 -140 6 -157 54 -166 30 -6 28
-39 -4 -75 -102 -117 -136 -299 -87 -463 32 -109 104 -199 176 -222 20 -6 39
-14 43 -18 6 -6 18 -70 33 -181 5 -39 16 -108 29 -190 3 -14 5 -36 5 -48 1
-13 14 -36 29 -50 24 -23 36 -55 75 -202 26 -96 85 -316 131 -488 l83 -312
-23 -32 c-31 -42 -30 -52 10 -107 56 -78 383 -528 492 -676 132 -182 169 -245
190 -325 21 -83 21 -81 23 -237 1 -105 4 -135 17 -147 14 -14 162 -16 1477
-16 804 0 1467 4 1474 8 6 4 16 20 22 35 9 23 16 27 53 28 59 1 70 4 123 30
106 53 184 184 189 319 4 94 -39 209 -96 253 l-29 24 46 129 c26 71 78 215
116 320 38 105 69 198 69 206 0 30 -37 46 -165 71 -71 15 -218 45 -325 68
-107 22 -208 43 -225 45 -16 3 -46 9 -65 15 -49 13 -96 11 -107 -4 -6 -6 -26
-56 -45 -110 l-34 -98 -28 43 c-16 24 -53 66 -82 94 l-54 51 37 24 c57 37 57
55 2 271 -27 106 -77 301 -111 433 -33 132 -62 245 -65 250 -2 7 12 9 37 7 70
-7 84 23 53 111 -13 37 -15 50 -5 56 7 4 122 40 256 80 220 66 244 76 259 101
22 37 21 62 -3 93 -21 27 -12 24 -395 112 -88 21 -176 41 -196 46 -33 8 -38
15 -59 72 -12 34 -34 84 -47 110 l-24 49 77 126 c239 393 294 486 294 503 0
53 -54 99 -100 84 -12 -4 -157 -90 -322 -191 -165 -101 -303 -184 -307 -184
-13 0 -152 57 -160 66 -7 8 -20 62 -51 204 -34 158 -114 479 -125 501 -16 30
-33 39 -74 39 -41 0 -71 -37 -86 -107 -2 -10 -27 -112 -55 -228 -28 -115 -52
-217 -53 -225 -2 -8 -12 -51 -22 -96 l-19 -80 -66 -21 c-36 -11 -85 -29 -110
-38 l-45 -17 -300 184 c-165 102 -311 188 -323 192 -47 15 -102 -29 -102 -82
0 -19 38 -85 220 -382 62 -102 122 -200 133 -218 l20 -33 -26 -47 c-13 -26
-35 -75 -47 -109 -26 -72 -5 -62 -230 -112 -377 -85 -394 -90 -417 -116 -28
-32 -29 -74 -3 -103 12 -12 58 -33 108 -48 48 -14 105 -32 127 -39 22 -7 97
-29 166 -50 l126 -37 -18 -49 c-24 -62 -24 -78 0 -103 19 -21 18 -24 -46 -251
-36 -126 -68 -233 -72 -238 -4 -4 -77 33 -162 83 l-155 90 -23 73 c-12 39 -88
293 -169 562 -140 465 -147 493 -141 550 8 67 16 159 24 250 11 117 16 145 29
145 7 0 20 8 29 18 14 15 17 42 17 148 0 152 -5 164 -68 167 -47 2 -48 3 -26
32 31 41 54 142 50 225 -5 121 -49 165 -106 105 -14 -15 -35 -25 -52 -25 -32
0 -67 31 -69 60 -1 11 -2 23 -3 28 -1 4 -6 23 -10 42 -14 61 -58 203 -78 249
-34 81 -58 81 -133 0z m119 -299 c18 -87 39 -125 86 -156 33 -22 48 -25 96
-22 l56 3 -5 -46 c-6 -53 -35 -119 -71 -164 l-24 -30 -159 -1 c-182 -2 -187 0
-229 91 -58 123 3 320 153 494 l38 45 22 -75 c13 -41 29 -103 37 -139z m2101
-325 c9 -44 28 -125 42 -180 14 -55 27 -111 29 -125 3 -14 10 -43 16 -65 23
-86 23 -86 -19 -79 -21 4 -82 7 -136 6 -88 0 -98 1 -92 16 4 9 9 28 12 42 2
14 27 117 54 230 60 243 57 231 59 250 2 29 17 -12 35 -95z m-1827 -259 l3
-66 -336 0 -335 0 0 64 c0 63 1 65 28 68 15 2 164 3 332 2 l305 -1 3 -67z
m1105 -253 c48 -29 99 -60 112 -69 l24 -16 -47 -37 c-26 -21 -70 -63 -98 -93
l-51 -54 -64 104 c-96 157 -101 165 -145 238 -22 38 -51 86 -64 107 l-23 39
134 -83 c74 -45 174 -106 222 -136z m1677 197 c-6 -11 -54 -91 -107 -178 -53
-86 -114 -186 -136 -223 l-40 -65 -51 54 c-28 30 -72 72 -98 93 l-48 38 243
150 c133 82 243 150 245 150 1 1 -2 -8 -8 -19z m-2844 -152 c-3 -24 -8 -70
-11 -103 -3 -33 -8 -78 -10 -100 -3 -22 -7 -71 -10 -110 -3 -38 -8 -86 -10
-105 -2 -19 -7 -67 -10 -105 -3 -39 -7 -79 -9 -90 -2 -11 -7 -65 -11 -120 -4
-55 -8 -102 -10 -105 -2 -3 -6 -43 -10 -90 -4 -47 -8 -94 -10 -105 -1 -11 -3
-35 -4 -52 l-1 -33 -124 0 c-69 0 -127 3 -129 8 -3 4 -7 30 -11 57 -3 28 -8
59 -10 70 -2 11 -6 41 -10 66 -4 25 -9 57 -11 70 -18 110 -17 117 13 133 15 8
47 33 70 56 182 182 133 592 -82 686 -27 12 -4 13 187 14 l218 0 -5 -42z
m-426 -73 c41 -21 75 -70 100 -145 64 -190 -39 -438 -172 -415 -95 17 -157
120 -164 271 -4 96 11 159 57 227 49 74 113 96 179 62z m2394 -10 c113 -18
270 -81 353 -141 65 -47 166 -159 209 -230 54 -92 128 -293 113 -309 -2 -2
-39 -5 -82 -6 l-78 -4 -40 69 c-260 433 -882 442 -1161 16 l-50 -75 -104 -1
c-63 0 -104 4 -104 10 0 34 49 174 87 248 98 192 260 330 455 389 132 40 281
53 402 34z m-179 -427 c-31 -145 -103 -256 -192 -293 -63 -27 -158 -26 -237 4
l-26 10 22 38 c35 59 131 155 191 191 64 39 180 81 220 82 27 0 28 -2 22 -32z
m252 7 c134 -45 256 -144 318 -256 31 -58 30 -60 -47 -83 -91 -28 -197 1 -258
70 -50 58 -90 148 -109 247 -10 57 -9 57 96 22z m-148 -195 c28 -73 85 -147
146 -190 27 -19 87 -73 134 -119 81 -78 206 -172 260 -192 l24 -10 -6 -142
c-3 -91 -11 -162 -22 -197 -78 -252 -289 -417 -545 -426 -149 -5 -253 26 -375
112 -66 46 -95 76 -141 144 -78 115 -101 207 -103 399 l-2 140 28 17 c87 53
137 92 211 165 50 48 102 88 130 100 26 11 62 32 80 45 43 33 105 118 128 176
10 26 22 44 25 40 3 -4 16 -32 28 -62z m-1754 -330 c42 -140 89 -298 105 -350
16 -52 35 -116 41 -141 l12 -46 -105 -154 c-58 -85 -139 -204 -180 -265 l-76
-112 -10 37 c-6 20 -43 155 -82 301 -38 146 -86 324 -105 395 -19 72 -35 134
-35 138 0 4 55 7 123 7 83 0 129 4 140 13 18 13 22 35 32 147 3 41 8 91 10
110 2 19 7 69 11 110 9 94 12 122 14 135 3 13 12 -15 105 -325z m780 228 c-1
-73 -30 -168 -50 -168 -8 0 -47 10 -87 23 -40 13 -126 39 -190 58 -65 19 -118
37 -118 40 0 4 381 97 441 108 3 1 5 -27 4 -61z m2020 16 c88 -20 165 -37 170
-38 6 -2 27 -6 48 -11 20 -4 37 -10 37 -14 0 -3 -37 -17 -83 -30 -136 -40
-271 -82 -294 -91 -13 -6 -25 -6 -28 0 -20 32 -38 105 -40 163 -2 58 0 67 14
63 9 -3 88 -22 176 -42z m-1613 -108 c42 -14 84 -26 94 -26 14 0 10 -8 -17
-36 -54 -56 -174 -132 -244 -153 -52 -16 -157 -27 -212 -22 -11 1 64 250 79
261 3 3 55 4 115 4 88 -1 122 -7 185 -28z m1364 -108 c23 -71 39 -128 36 -129
-4 -1 -38 -2 -77 -4 -81 -2 -163 16 -221 50 -51 30 -154 113 -154 124 0 5 17
11 38 14 34 5 97 30 149 61 13 7 54 12 104 12 l82 -1 43 -127z m-1526 -335 c0
-65 7 -147 14 -183 8 -36 13 -79 11 -95 -1 -17 -5 -64 -9 -105 -4 -41 -9 -91
-11 -110 -2 -19 -7 -60 -11 -90 -3 -30 -7 -56 -7 -57 -6 -6 -132 79 -132 89 0
7 5 45 11 83 7 39 15 88 18 110 4 22 15 94 26 160 11 66 22 138 25 160 3 22
10 64 15 94 6 30 10 56 10 58 0 2 9 3 20 3 19 0 20 -7 20 -117z m-145 82 c-3
-11 -19 -105 -35 -210 -17 -104 -33 -201 -35 -215 -2 -14 -7 -43 -10 -65 -9
-62 -16 -95 -21 -95 -2 0 -29 14 -58 31 l-54 30 19 72 c28 101 128 450 133
462 2 6 18 11 34 10 26 0 30 -3 27 -20z m1620 13 c11 -11 229 -868 222 -874
-2 -3 -53 -23 -113 -45 -60 -22 -163 -61 -228 -85 -88 -33 -121 -41 -127 -32
-6 10 -33 105 -44 158 -2 8 -13 51 -24 94 -27 101 -27 103 9 132 43 37 116
137 149 207 51 107 70 205 71 357 l0 96 40 -1 c21 0 42 -3 45 -7z m-1890 -617
c154 -90 285 -169 292 -175 9 -8 5 -22 -19 -56 -121 -176 -208 -303 -241 -350
-40 -57 -45 -95 -16 -113 38 -24 62 0 204 208 77 113 149 217 160 230 l20 24
95 -63 c213 -141 327 -291 365 -484 11 -55 70 -68 92 -20 11 26 -8 119 -38
184 -24 54 -24 55 4 50 45 -8 333 -68 367 -76 19 -4 48 -11 63 -14 22 -5 26
-10 18 -19 -9 -11 -332 -553 -365 -612 -6 -11 -58 -100 -116 -198 -58 -97
-110 -185 -115 -195 -6 -9 -23 -38 -39 -64 l-28 -48 -356 0 -357 1 105 101
c58 55 181 173 274 262 242 231 237 224 196 261 -31 28 -57 13 -166 -92 -55
-54 -181 -174 -279 -268 -98 -93 -187 -179 -197 -189 -18 -19 -18 -18 -19 45
-1 68 -2 77 -13 151 l-7 48 96 136 c77 108 96 140 91 159 -8 30 -34 45 -61 35
-12 -4 -52 -53 -90 -109 -39 -55 -73 -99 -76 -98 -4 1 -32 40 -64 87 -32 47
-104 149 -161 226 -57 78 -104 144 -104 147 0 3 56 89 125 191 69 103 125 192
125 199 0 8 -9 22 -20 32 -37 34 -59 14 -176 -157 -61 -89 -115 -163 -120
-165 -5 -1 -22 16 -39 40 -16 23 -69 96 -118 162 -49 66 -94 130 -99 142 -9
18 7 47 121 213 72 105 170 249 217 320 l87 130 51 -28 c28 -16 177 -102 331
-191z m618 -18 l49 -52 -23 -88 c-12 -48 -23 -89 -24 -91 -1 -1 -28 12 -59 30
l-57 33 6 95 c4 52 8 104 9 115 2 11 4 31 5 45 l2 25 22 -30 c12 -16 43 -53
70 -82z m189 -134 c49 -25 136 -54 192 -64 116 -20 284 3 394 55 36 17 66 29
68 27 2 -2 30 -108 63 -235 57 -223 58 -232 38 -227 -12 2 -55 11 -95 20 -41
9 -160 34 -265 56 -437 91 -380 73 -440 136 -28 31 -51 61 -51 67 4 29 23 110
40 169 7 21 6 21 56 -4z m1251 -284 c20 -14 37 -28 37 -31 0 -13 -190 -126
-234 -139 -65 -18 -154 -24 -165 -11 -4 6 -12 28 -18 48 l-11 37 42 16 c22 8
93 35 156 59 63 24 124 45 135 45 11 1 37 -10 58 -24z m632 -49 c17 -3 95 -19
175 -36 80 -18 172 -36 205 -42 33 -6 64 -14 68 -18 5 -4 -7 -50 -26 -101 -19
-52 -65 -177 -101 -279 -37 -102 -71 -189 -75 -193 -4 -4 -27 -10 -51 -12
-170 -17 -303 -231 -267 -429 10 -58 35 -110 73 -155 14 -18 24 -34 22 -37 -3
-2 -158 -3 -345 -2 l-340 3 119 335 c205 581 200 565 203 660 2 71 10 107 49
219 25 73 46 134 46 135 0 1 48 -8 108 -20 59 -13 121 -26 137 -28z m-482
-118 c60 -124 55 -247 -20 -428 -3 -8 -7 -19 -9 -25 -1 -5 -60 -173 -131 -372
l-128 -363 -122 0 c-68 0 -123 1 -123 3 0 1 15 49 34 107 18 58 57 179 85 270
29 91 74 233 101 315 26 83 71 223 99 312 l51 161 63 40 c34 22 65 38 68 36 4
-2 18 -27 32 -56z m-610 -103 c104 -22 148 -24 236 -7 40 7 75 12 76 10 3 -3
-19 -74 -129 -418 -36 -113 -98 -310 -138 -437 l-73 -233 -372 0 c-205 0 -373
2 -373 4 0 3 177 304 566 964 74 124 88 142 107 138 12 -3 57 -12 100 -21z
m1359 -564 c96 -37 131 -182 74 -308 -32 -68 -58 -98 -108 -124 -91 -47 -181
4 -206 116 -37 170 111 366 240 316z"/>
</g>
</svg>
